<?xml version="1.0" ?><svg id="Layer_1" style="enable-background:new 0 0 512 512;" version="1.1" viewBox="0 0 512 512" xml:space="preserve" xmlns="http://www.w3.org/2000/svg" xmlns:xlink="http://www.w3.org/1999/xlink"><g id="XMLID_4272_"><polygon id="XMLID_4273_" points="339.7,6 339.7,112.8 448.3,112.8  "/><path d="M367.6,338.6L367.6,338.6c0-49.1-39.8-88.9-88.9-88.9h-215v177.8h215   C327.8,427.5,367.6,387.7,367.6,338.6z M183.9,375.9c-2.4,3.4-6.2,6.4-11.5,9.1c-5.3,2.7-12.1,4-20.4,4c-10.3,0-18.8-3.3-25.5-10   c-6.7-6.7-10-15.3-10-25.9v-18.3c0-10.6,3.2-19.2,9.7-25.9c6.4-6.7,14.7-10,24.9-10c10.2,0,18.1,2.6,23.8,7.7   c5.7,5.1,8.5,11.8,8.3,20.1l-0.2,0.4h-13.9c0-4.9-1.5-8.9-4.6-11.9c-3.1-3-7.5-4.5-13.2-4.5c-6,0-10.9,2.3-14.6,6.8   c-3.7,4.5-5.6,10.3-5.6,17.2v18.4c0,7.1,1.9,12.8,5.8,17.4c3.9,4.5,8.9,6.8,15.1,6.8c4.7,0,8.4-0.5,11.1-1.6   c2.7-1.1,4.8-2.4,6.2-3.9v-18.1H151v-10.9h32.9V375.9z M217.6,387.8H203v-87.5h14.6V387.8z M251.8,387.8h-14.6v-87.5h56V312h-41.4   v26.7H287v11.7h-35.3V387.8z" id="XMLID_4277_"/><path d="M327.7,6.3H81v231.3h197.7c55.6,0,100.9,45.3,100.9,100.9c0,55.6-45.3,100.9-100.9,100.9H81V506h366.7   l0.6-381.2H327.7V6.3z" id="XMLID_4282_"/></g></svg>