<?xml version="1.0" ?><!DOCTYPE svg  PUBLIC '-//W3C//DTD SVG 1.1//EN'  'http://www.w3.org/Graphics/SVG/1.1/DTD/svg11.dtd'><svg height="512px" style="enable-background:new 0 0 512 512;" version="1.1" viewBox="0 0 512 512" width="512px" xml:space="preserve" xmlns="http://www.w3.org/2000/svg" xmlns:xlink="http://www.w3.org/1999/xlink"><g id="Board_x2C__school_board"><g><path d="M256.028,495.435c131.841,0,239.403-107.569,239.403-239.408    c0-131.896-107.563-239.461-239.403-239.461c-131.894,0-239.46,107.564-239.46,239.461    C16.568,387.865,124.135,495.435,256.028,495.435L256.028,495.435z" style="fill-rule:evenodd;clip-rule:evenodd;fill:#1C1C1C;"/><path d="M186.914,485.285    C88.373,455.635,16.568,364.212,16.568,256.026c0-23.935,3.53-47.084,10.088-68.892l75-34.696l312.781,204.594L186.914,485.285z" style="fill-rule:evenodd;clip-rule:evenodd;fill:#0A0A0A;"/><path d="M102.384,152.382h307.229c3.199,0,5.83,2.635,5.83,5.83    v195.573c0,3.19-2.631,5.828-5.83,5.828H102.384c-3.192,0-5.771-2.638-5.771-5.828V158.212    C96.612,155.017,99.191,152.382,102.384,152.382L102.384,152.382z" style="fill-rule:evenodd;clip-rule:evenodd;fill:#959595;"/><path d="M102.384,152.382h307.229c3.646,0,7.625,4.878,4.936,6.616    c-157.625,100.338-152.859,97.028-310.705,200.164c-2.635,1.741-7.231-1.511-7.231-5.377V158.212    C96.612,155.017,99.191,152.382,102.384,152.382L102.384,152.382z" style="fill-rule:evenodd;clip-rule:evenodd;fill:#E2E2E2;"/><rect height="191.65" style="fill-rule:evenodd;clip-rule:evenodd;fill:#3F3F3F;" width="294.787" x="108.605" y="160.174"/><path d="M298.965,345.603h42.096c1.738,0,3.139,1.397,3.139,3.134l0,0    c0,1.685-1.4,3.145-3.139,3.145h-42.096c-1.74,0-3.137-1.46-3.137-3.145l0,0C295.828,347,297.225,345.603,298.965,345.603    L298.965,345.603z" style="fill-rule:evenodd;clip-rule:evenodd;fill:#FEFEFE;"/><polygon points="108.605,160.174 403.393,160.174 108.605,351.824       " style="fill-rule:evenodd;clip-rule:evenodd;fill:#555555;"/><path d="M153.506,258.213c0.281,3.028,1.738,6.669,4.765,9.193c2.86,2.412,5.101,2.745,9.136,0.113    c0.786-0.564,1.852-2.131,2.747-0.902c0.73,1.015-0.842,1.741-1.626,2.412c-5.044,4.035-10.817,2.694-14.74-2.97    c-5.72-8.407-1.795-16.985,3.475-21.747c2.914-2.638,7.792-2.303,10.426,0.558c0.448,0.395,0.674,1.009,0.896,1.572    c0.279,0.671,0.279,1.454-0.448,1.846c-0.952,0.564-1.178-0.223-1.513-0.839c-2.466-3.979-6.335-3.475-9.136-0.448    C155.357,249.244,153.506,254.231,153.506,258.213L153.506,258.213z" style="fill:#FEFEFE;"/><path d="M176.209,246.104c-0.169,2.914-0.281,6.166-0.507,9.474c-0.166,1.849,0.729,3.532,0.112,5.438    c-0.278,1.065,0.843,1.51,2.021,1.566c2.745,0.169,5.436-0.952,8.181-0.671c1.29,0.17,0.843-0.839,0.843-1.403    c0.056-3.36-0.505-6.668-0.953-9.974c-0.395-2.524-0.226-5.104-0.169-7.625c0-1.065,0.561-1.738,1.683-1.683    c1.234,0.113,1.457,1.178,1.457,2.018c-0.223,8.97,1.287,17.884,1.851,26.851c0,1.009-0.281,1.629-1.121,1.849    c-1.065,0.338-1.572-0.445-1.738-1.234c-0.392-1.849-0.728-3.754-0.896-5.658c-0.112-1.065-0.617-1.122-1.347-0.952    c-2.522,0.501-5.044,0.558-7.566,0.783c-1.961,0.169-2.804,1.234-2.412,3.252c0.169,0.896,0.338,1.735,0.451,2.632    c0.169,0.845-0.336,1.459-1.012,1.685c-0.728,0.226-1.175-0.226-1.514-0.84c-0.504-0.845-0.783-1.792-0.727-2.862    c0.504-8.572,0.671-17.208,0.614-25.782c0-1.178,0.338-2.187,1.572-2.187c1.122,0.056,1.178,1.178,1.178,2.187V246.104z" style="fill:#FEFEFE;"/><path d="M195.546,269.143c0,0.225,0,0.45,0,0.619c0.281,0.947,1.121,2.238-0.448,2.463    c-1.122,0.169-1.178-1.234-1.122-2.073c0.057-3.811-0.335-7.682,0.336-11.437c1.012-5.771,2.524-11.376,3.981-17.04    c0.166-0.783,0.448-1.4,1.178-1.566c0.84-0.226,1.175,0.614,1.738,1.063c0.559,0.504,0.448,1.347,0.615,1.964    c2.747,7.791,4.708,15.807,7.737,23.539c0.11,0.281,0.223,0.563,0.335,0.846c0.393,1.172,1.793,2.801,0.393,3.358    c-1.122,0.507-1.683-1.566-2.3-2.744c-0.279-0.614-0.392-1.348-0.783-1.962c-0.505-0.952-1.234-1.735-2.412-1.234    c-1.792,0.62-3.641,0.282-5.492,0.282C196.332,265.332,195.489,266.116,195.546,269.143L195.546,269.143z M199.189,263.647    c1.233-0.614,3.195-0.445,5.1-0.445c1.517,0,1.626-0.451,1.125-1.849c-1.517-4.484-2.751-9.083-4.317-13.513    c-0.338-1.007,0.057-2.857-1.234-2.802c-1.29,0.057-0.617,1.905-0.896,2.914c-1.009,3.981-1.905,8.017-2.748,12.054    C195.602,263.09,195.993,263.54,199.189,263.647L199.189,263.647z" style="fill:#FEFEFE;"/><path d="M221.893,269.086c1.566,0,3.083-0.057,4.596,0.057c0.617,0,1.345,0.169,1.065,1.064    c-0.112,0.451-0.448,0.728-1.065,0.728c-3.308-0.169-6.613,0.507-9.978,0.281c-2.748-0.169-2.971-0.281-2.971-2.913    c0-5.213,0.562-10.315,1.345-15.415c0.561-3.757,0.504-7.513,0.169-11.213c-0.112-1.175-0.338-2.187,1.065-2.353    c1.118,0,1.231,1.064,1.287,2.073c0.17,4.932-0.335,9.866-1.009,14.797c-0.392,3.42-1.009,6.841-0.842,10.318    c0.115,1.904,0.676,2.856,2.693,2.688c1.175-0.169,2.466-0.056,3.644-0.056V269.086z" style="fill:#FEFEFE;"/><path d="M230.915,267.575c1.517-7.236,0-15.192,0.953-22.983c0.169-1.514-0.392-2.974,1.121-4.035    c0.84-0.62,1.572-0.73,2.522-0.113c1.008,0.617,0.561,1.345,0.112,2.074c-0.671,1.009-0.783,2.074-0.671,3.195    c0.393,3.083-0.898,6.166-0.056,9.305c0.448,1.566,0.839,1.566,1.96,0.783c3.419-2.409,5.045-5.939,5.719-9.978    c0.166-1.007,0.561-1.905,0.729-2.914c0.166-1.009,0.949-1.234,1.849-1.065c1.064,0.166,1.623,0.953,1.344,1.962    c-1.457,5.047-2.465,10.369-7.287,13.512c-1.514,1.006-0.896,1.341,0.057,2.019c4.092,2.857,7.961,6.053,10.874,10.145    c0.505,0.614,1.683,1.229,0.562,2.13c-0.896,0.728-1.906,0.614-2.748-0.112c-0.445-0.451-0.783-0.952-1.178-1.46    c-2.914-3.641-6.389-6.724-10.426-9.136c-1.006-0.563-1.289-0.84-1.623,0.728c-0.505,2.638-0.279,5.27-0.899,7.851    c-0.279,1.285-0.223,2.632-1.961,2.463c-1.567-0.22-1.288-1.454-1.009-2.632C231.028,268.973,230.915,268.528,230.915,267.575    L230.915,267.575z" style="fill:#FEFEFE;"/><path d="M269.48,262.413c0.449-6.052-0.057-10.816,0.17-15.522c0.053-1.403-0.73-3.252,1.4-3.813    c2.521-0.674,5.043,0.279,6.221,1.961c2.074,3.026,0.896,5.495-1.008,7.961c-0.393,0.448-1.121,0.84-0.84,1.457    c0.109,0.226,0.953,0.226,1.457,0.166c3.926-0.166,7.848,3.252,8.127,5.609c0.561,3.641,0.168,7.174-4.596,9.919    c-2.131,1.29-4.318,2.187-6.727,2.412c-2.467,0.225-3.531-0.508-3.475-2.971C270.324,266.674,269.201,263.929,269.48,262.413    L269.48,262.413z M276.32,248.179c0.057-1.178-0.338-2.187-1.234-2.691c-0.953-0.504-2.24-1.009-2.689,0.505    c-0.842,2.578-0.785,5.213-0.619,7.848c0.057,0.504,0.395,1.29,0.842,0.727C274.246,252.665,276.094,250.87,276.32,248.179    L276.32,248.179z M271.834,262.024c-0.336,2.355,0.729,4.593,0.451,6.948c-0.113,1.179,0.561,1.517,1.68,1.573    c2.859,0.056,7.455-2.857,8.465-5.552c0.842-2.074,0.395-5.325-0.953-6.502c-2.131-1.852-4.484-2.243-7.287-1.231    C271.668,258.156,271.498,259.894,271.834,262.024L271.834,262.024z" style="fill:#FEFEFE;"/><path d="M297.396,240.331c3.754,0,7.398,2.412,7.959,5.773c0.896,5.661,2.24,11.491,0.113,17.267    c-0.844,2.187-1.627,4.368-3.365,5.94c-2.297,2.187-5.662,2.581-8.352,1.009c-5.549-3.14-7.736-10.539-6.725-16.706    c0.672-3.923,2.41-7.456,4.932-10.536C293.473,241.227,295.211,239.937,297.396,240.331L297.396,240.331z M303.898,255.97    c0.447-2.747-0.393-5.494-0.617-8.352c-0.225-2.018-1.121-3.813-3.361-4.597c-2.973-1.064-5.383-0.169-7.291,3.026    c-2.465,4.035-3.809,8.296-3.08,13.119c0.502,3.472,1.963,6.391,4.541,8.628c2.631,2.3,5.887,1.572,7.621-1.51    C303.506,263.09,304.346,259.781,303.898,255.97L303.898,255.97z" style="fill:#FEFEFE;"/><path d="M310.736,269.143c0,0.225,0,0.45,0,0.619c0.279,0.947,1.119,2.238-0.447,2.463    c-1.121,0.169-1.178-1.234-1.121-2.073c0.053-3.811-0.338-7.682,0.336-11.437c1.008-5.771,2.523-11.376,3.979-17.04    c0.168-0.783,0.447-1.4,1.178-1.566c0.84-0.226,1.178,0.614,1.738,1.063c0.561,0.504,0.447,1.347,0.617,1.964    c2.744,7.791,4.705,15.807,7.734,23.539c0.113,0.281,0.223,0.563,0.336,0.846c0.393,1.172,1.795,2.801,0.393,3.358    c-1.119,0.507-1.684-1.566-2.297-2.744c-0.283-0.614-0.393-1.348-0.783-1.962c-0.508-0.952-1.234-1.735-2.412-1.234    c-1.795,0.62-3.645,0.282-5.492,0.282C311.521,265.332,310.682,266.116,310.736,269.143L310.736,269.143z M314.381,263.647    c1.23-0.614,3.193-0.445,5.1-0.445c1.514,0,1.627-0.451,1.123-1.849c-1.514-4.484-2.748-9.083-4.318-13.513    c-0.338-1.007,0.057-2.857-1.234-2.802c-1.287,0.057-0.613,1.905-0.895,2.914c-1.01,3.981-1.906,8.017-2.748,12.054    C310.793,263.09,311.186,263.54,314.381,263.647L314.381,263.647z" style="fill:#FEFEFE;"/><path d="M331.029,263.202c0.168,1.454-0.113,3.083,0.391,4.649c0.279,0.896,0.057,1.798-0.279,2.638    c-0.225,0.558-0.619,0.84-1.178,0.783c-0.672-0.057-0.951-0.451-0.951-1.009c0.166-2.13-0.73-4.147-0.674-6.278    c0.109-5.772,0.057-11.492,0-17.207c0-0.955,0.057-1.908-0.113-2.748c-0.504-3.026-0.057-3.979,2.805-4.485    c3.641-0.614,7.287-0.559,10.705,1.178c3.309,1.738,4.037,7.287,1.287,10.369c-1.904,2.074-4.201,3.475-6.779,4.374    c-1.348,0.392-1.516,0.783-0.227,1.569c4.035,2.689,6.953,6.393,9.475,10.428c0.281,0.332,0.561,0.614,0.73,1.009    c0.277,0.671,0.277,1.397-0.449,1.849c-0.729,0.501-1.18-0.113-1.516-0.559c-1.793-1.91-3.139-4.204-4.762-6.222    c-1.57-2.074-3.59-3.59-5.721-4.936c-1.961-1.344-2.576-0.952-2.744,1.402c0,0.056,0,0.226,0,0.281V263.202z M331.086,250.757    c0,4.373,0.055,4.43,4.09,3.083c2.523-0.84,4.822-2.018,6.166-4.54c1.57-2.913,1.232-5.325-1.234-6.782    c-2.521-1.457-5.266-1.291-8.016-0.955c-0.951,0.169-1.793,1.067-1.346,2.299c0.617,1.795,0.227,3.588,0.34,5.157V250.757z" style="fill:#FEFEFE;"/><path d="M348.686,256.584c0-3.753-0.113-7.565,0-11.319c0-2.69,1.064-3.477,3.645-2.69    c5.717,1.795,9.248,5.714,10.426,11.545c1.117,5.55,0.67,10.875-3.982,15.023c-1.791,1.566-3.979,2.468-6.166,3.195    c-1.848,0.671-3.865-1.348-3.922-3.81C348.629,264.543,348.686,260.564,348.686,256.584L348.686,256.584z M351.318,265.558    c0.563,1.003-0.785,3.923,0.506,4.368c1.623,0.676,3.645-1.065,5.158-2.463c4.203-3.703,3.979-8.465,3.025-13.344    c-0.787-3.923-3.025-6.78-6.504-8.688c-2.186-1.178-2.635-0.896-2.688,1.514C350.59,252.943,351.318,258.884,351.318,265.558    L351.318,265.558z" style="fill:#FEFEFE;"/></g></g><g id="Layer_1"/></svg>